<?xml version="1.0" encoding="utf-8"?>
<!-- Generator: Adobe Illustrator 18.1.0, SVG Export Plug-In . SVG Version: 6.00 Build 0)  -->
<svg version="1.1" id="Layer_1" xmlns="http://www.w3.org/2000/svg" xmlns:xlink="http://www.w3.org/1999/xlink" x="0px" y="0px"
	 viewBox="0 0 7.7 150.9" enable-background="new 0 0 7.7 150.9" xml:space="preserve">
<g>
	<g>
		<path d="M0.1,150.9v-0.8h3.6l-3.6-2.3V147l3.7,2.4l3.7-2.6v0.9L4,150.2h3.6v0.8H0.1z"/>
		<path d="M0.1,146.3v-0.8h7.4v0.8H0.1z"/>
		<path d="M7.5,144.2H0.1V143l6.3-1.7l-6.3-1.6v-1.2h7.4v0.7H0.8l6.7,1.7v0.7l-6.7,1.9h6.7V144.2z"/>
		<path d="M0.1,134.7v-1.4c0-1.1,0.2-1.5,0.4-1.8c0.4-0.5,1-0.8,1.8-0.8c0.5,0,0.9,0.1,1.3,0.3c0.5,0.3,0.8,0.7,0.8,1.3l3-1.5v0.8
			l-3.4,1.6c0-0.1,0-0.2,0-0.3c0-0.5-0.1-0.9-0.4-1.2c-0.3-0.3-0.8-0.4-1.3-0.4c-0.5,0-1,0.1-1.4,0.6c-0.2,0.3-0.3,0.8-0.3,1.3v0.6
			h6.7v0.8H0.1z"/>
		<path d="M7.5,129.6v0.8l-7.4-2.1v-0.7l7.4-2.1v0.8l-2.2,0.6v2.2L7.5,129.6z M1.1,127.9l3.6,0.9V127L1.1,127.9z"/>
		<path d="M5.5,124.3c1.1-0.1,1.5-0.8,1.5-1.3c0-0.8-0.5-1.4-1.4-1.4c-1.1,0-1.3,0.9-1.6,1.6c-0.2,0.6-0.6,1.7-1.9,1.7
			c-1.3,0-2.1-0.8-2.1-1.9c0-1.1,0.6-1.8,1.9-2v0.7c-0.5,0.1-1.2,0.3-1.2,1.2c0,0.7,0.5,1.2,1.3,1.2c1,0,1.2-0.7,1.5-1.7
			c0.2-0.6,0.6-1.6,2.1-1.6c1.3,0,2.1,0.9,2.1,2.1c0,1.2-0.7,2-2.2,2.1V124.3z"/>
		<path d="M7.5,119.8H0.1v-1.2l6.3-1.7l-6.3-1.6v-1.2h7.4v0.7H0.8l6.7,1.7v0.7l-6.7,1.9h6.7V119.8z"/>
		<path d="M0.1,112h5.4c0.4,0,0.8-0.1,1.1-0.4c0.3-0.3,0.3-0.6,0.3-1c0-0.4-0.1-0.8-0.3-1c-0.3-0.3-0.7-0.4-1.1-0.4H0.1v-0.7h5.4
			c0.7,0,1.2,0.2,1.5,0.5c0.4,0.4,0.6,0.9,0.6,1.6c0,0.7-0.2,1.3-0.6,1.6c-0.4,0.3-0.8,0.5-1.5,0.5H0.1V112z"/>
		<path d="M5.5,106.8c1.1-0.1,1.5-0.8,1.5-1.3c0-0.8-0.5-1.4-1.4-1.4c-1.1,0-1.3,0.9-1.6,1.6c-0.2,0.6-0.6,1.7-1.9,1.7
			c-1.3,0-2.1-0.8-2.1-1.9c0-1.1,0.6-1.8,1.9-2v0.7c-0.5,0.1-1.2,0.3-1.2,1.2c0,0.7,0.5,1.2,1.3,1.2c1,0,1.2-0.7,1.5-1.7
			c0.2-0.6,0.6-1.6,2.1-1.6c1.3,0,2.1,0.9,2.1,2.1c0,1.2-0.7,2-2.2,2.1V106.8z"/>
		<path d="M5.5,101.8c1.1-0.1,1.5-0.8,1.5-1.3c0-0.8-0.5-1.4-1.4-1.4c-1.1,0-1.3,0.9-1.6,1.6c-0.2,0.6-0.6,1.7-1.9,1.7
			c-1.3,0-2.1-0.8-2.1-1.9c0-1.1,0.6-1.8,1.9-2v0.7c-0.5,0.1-1.2,0.3-1.2,1.2c0,0.7,0.5,1.2,1.3,1.2c1,0,1.2-0.7,1.5-1.7
			c0.2-0.6,0.6-1.6,2.1-1.6c1.3,0,2.1,0.9,2.1,2.1c0,1.2-0.7,2-2.2,2.1V101.8z"/>
		<path d="M0.1,97.3v-3.5h0.7v2.7h2.6v-2.7h0.7v2.7h2.7v-2.7h0.7v3.5H0.1z"/>
		<path d="M6.3,88.6H0.1V88h7.4v0.8l-6.3,3.1h6.3v0.7H0.1v-0.9L6.3,88.6z"/>
		<path d="M2.6,82.7c0-0.7,0.5-1.2,1.2-1.2c0.7,0,1.2,0.5,1.2,1.2c0,0.7-0.5,1.2-1.2,1.2C3.2,84,2.6,83.4,2.6,82.7L2.6,82.7z"/>
		<path d="M0.1,77.6v-3.2h0.7v2.4h2.6v-2.4h0.7v2.4h3.4v0.7H0.1z"/>
		<path d="M0.1,73.3v-1.4c0-1.1,0.2-1.5,0.4-1.8c0.4-0.5,1-0.8,1.8-0.8c0.5,0,0.9,0.1,1.3,0.3c0.5,0.3,0.8,0.7,0.8,1.3l3-1.5v0.8
			L4.1,72c0-0.1,0-0.2,0-0.3c0-0.5-0.1-0.9-0.4-1.2c-0.3-0.3-0.8-0.4-1.3-0.4c-0.5,0-1,0.1-1.4,0.6C0.8,71,0.8,71.5,0.8,72v0.6h6.7
			v0.8H0.1z"/>
		<path d="M3.8,68.6c-2.2,0-3.8-0.9-3.8-2.7c0-1.8,1.6-2.7,3.8-2.7c1.9,0,3.8,0.8,3.8,2.7C7.7,67.7,6,68.6,3.8,68.6L3.8,68.6z
			 M3.8,67.9c2,0,3.1-0.7,3.1-1.9C7,64.7,5.9,64,3.8,64c-2,0-3.1,0.7-3.1,1.9C0.7,67.1,1.8,67.9,3.8,67.9L3.8,67.9z"/>
		<path d="M6.3,58.3H0.1v-0.7h7.4v0.8l-6.3,3.1h6.3v0.7H0.1v-0.9L6.3,58.3z"/>
		<path d="M0.8,55.2v1.5H0.1V53h0.7v1.5h6.7v0.7H0.8z"/>
		<path d="M0.1,52.1v-3.5h0.7v2.7h2.6v-2.7h0.7v2.7h2.7v-2.7h0.7v3.5H0.1z"/>
		<path d="M6.3,43.4H0.1v-0.7h7.4v0.8l-6.3,3.1h6.3v0.7H0.1v-0.9L6.3,43.4z"/>
		<path d="M0.1,41.4v-1.7c0-1,0.2-1.9,1.1-2.4c0.6-0.4,1.5-0.6,2.6-0.6c2.8,0,3.7,1.4,3.7,3v1.7H0.1z M6.8,40.7v-0.9
			c0-1.7-1.1-2.3-3-2.3c-1,0-1.8,0.2-2.3,0.5c-0.5,0.4-0.7,1-0.7,1.8v0.9H6.8z"/>
		<path d="M0.1,34.9h5.4c0.4,0,0.8-0.1,1.1-0.4c0.3-0.2,0.3-0.6,0.3-1c0-0.4-0.1-0.8-0.3-1c-0.3-0.3-0.7-0.4-1.1-0.4H0.1v-0.7h5.4
			c0.7,0,1.2,0.2,1.5,0.5c0.4,0.4,0.6,0.9,0.6,1.6c0,0.7-0.2,1.3-0.6,1.6c-0.4,0.4-0.8,0.5-1.5,0.5H0.1V34.9z"/>
		<path d="M0.1,30.1v-1.7c0-1,0.2-1.9,1.1-2.4c0.6-0.4,1.5-0.6,2.6-0.6c2.8,0,3.7,1.4,3.7,3v1.7H0.1z M6.8,29.3v-0.9
			c0-1.7-1.1-2.3-3-2.3c-1,0-1.8,0.2-2.3,0.5c-0.5,0.4-0.7,1-0.7,1.8v0.9H6.8z"/>
		<path d="M0.1,25.2v-0.8l6.4-1.8l-6.4-1.8v-0.7l7.4,2.1V23L0.1,25.2z"/>
		<path d="M0.1,19.5v-0.8h7.4v0.8H0.1z"/>
		<path d="M0.1,17.4v-0.8h3.6l-3.6-2.3v-0.8l3.7,2.4l3.7-2.6v0.9L4,16.6h3.6v0.8H0.1z"/>
		<path d="M0.1,12.7v-0.7h6.7V9.6h0.7v3.1H0.1z"/>
		<path d="M0.1,8.7V5.3h0.7V8h2.6V5.3h0.7V8h2.7V5.3h0.7v3.5H0.1z"/>
		<path d="M0.1,4V2.6c0-1.1,0.2-1.5,0.4-1.8C1,0.3,1.6,0,2.4,0c0.5,0,0.9,0.1,1.3,0.3c0.5,0.3,0.8,0.7,0.8,1.3l3-1.5V1L4.1,2.6
			c0-0.1,0-0.2,0-0.3c0-0.5-0.1-0.9-0.4-1.2C3.4,0.9,2.9,0.8,2.4,0.8c-0.5,0-1,0.1-1.4,0.6C0.8,1.6,0.8,2.2,0.8,2.6v0.6h6.7V4H0.1z"
			/>
	</g>
</g>
</svg>
